<?xml version="1.0" encoding="utf-8"?>
<!-- Generator: Adobe Illustrator 16.0.4, SVG Export Plug-In . SVG Version: 6.00 Build 0)  -->
<!DOCTYPE svg PUBLIC "-//W3C//DTD SVG 1.1//EN" "http://www.w3.org/Graphics/SVG/1.1/DTD/svg11.dtd">
<svg version="1.1" id="Layer_1" xmlns="http://www.w3.org/2000/svg" xmlns:xlink="http://www.w3.org/1999/xlink" x="0px" y="0px"
	 width="512px" height="512px" viewBox="0 0 512 512" enable-background="new 0 0 512 512" xml:space="preserve">
<g>
	<path d="M480,45L439,4c-3-3-5-4-9-4s-7,1-10,4L180,244c-1,1-2,3-3,5l-26,67c-4,9,3,19,12,19c2,0,3,0,5-1l68-27c2-1,3-2,4-3L480,64
		C485,59,485,50,480,45z M223,283l-36,14l14-36L430,33l22,22L223,283z"/>
	<path d="M373,238c-12,0-22,10-22,22v207H69V79h216c12,0,22-9,22-21s-10-22-22-22H47c-12,0-21,10-21,22v430c0,12,9,22,21,22h326
		c12,0,21-10,21-22V260C394,248,385,238,373,238z"/>
</g>
</svg>
