<?xml version="1.0" standalone="no"?><!DOCTYPE svg PUBLIC "-//W3C//DTD SVG 1.1//EN" "http://www.w3.org/Graphics/SVG/1.1/DTD/svg11.dtd"><svg t="1488967887394" class="icon" style="" viewBox="0 0 1024 1024" version="1.1" xmlns="http://www.w3.org/2000/svg" p-id="6014" xmlns:xlink="http://www.w3.org/1999/xlink" width="32" height="32"><defs><style type="text/css"></style></defs><path d="M910.67549 338.533226 748.561275 338.533226l0 100.631932 162.114215 0L910.67549 338.533226zM910.67549 466.647069 748.561275 466.647069l0 100.692307 162.114215 0L910.67549 466.647069zM910.67549 210.480782 748.561275 210.480782l0 100.631932 162.114215 0L910.67549 210.480782zM910.67549 718.222805 748.561275 718.222805l0 100.695377 162.114215 0L910.67549 718.222805zM985.187531 109.849874 595.257727 109.849874c-4.652973 0-9.090029 0.954745-13.152555 2.672876L582.105173 3.759627 3.759115 118.969579l0 785.996374 578.347081 115.273397L582.106196 916.929426c4.062526 1.723248 8.499581 2.681062 13.152555 2.681062l389.929804 0c19.355837 0 35.052331-16.440437 35.052331-36.604686L1020.240885 146.453537C1020.239861 126.229936 1004.543368 109.849874 985.187531 109.849874zM393.687896 681.683611l-70.107731-4.592598-52.547797-132.704394-56.954153 123.58469-65.764819-4.590552 83.260286-151.007249-74.448596-164.656107 65.701374-4.593622 43.800575 123.523291 8.747221 0 48.204885-132.703371 70.107731-4.529153-87.60115 173.839257L393.687896 681.683611zM976.439286 873.825722 582.106196 873.825722l0-54.906517 131.403772 0 0-100.695377L582.106196 718.223828l0-22.828938 131.403772 0 0-100.631932L582.106196 594.762959l0-27.423583 131.403772 0 0-100.692307L582.106196 466.647069 582.106196 439.165158l131.403772 0 0-100.631932L582.106196 338.533226l0-27.420513 131.403772 0 0-100.631932L582.106196 210.480782l0-54.905494 394.334113 0L976.440309 873.825722zM910.67549 594.762959 748.561275 594.762959l0 100.631932 162.114215 0L910.67549 594.762959z" p-id="6015" fill="#0e932e"></path></svg>