<?xml version="1.0" standalone="no"?><!DOCTYPE svg PUBLIC "-//W3C//DTD SVG 1.1//EN" "http://www.w3.org/Graphics/SVG/1.1/DTD/svg11.dtd"><svg t="1495599325041" class="icon" style="" viewBox="0 0 1024 1024" version="1.1" xmlns="http://www.w3.org/2000/svg" p-id="2610" xmlns:xlink="http://www.w3.org/1999/xlink" width="200" height="200"><defs><style type="text/css"></style></defs><path d="M836.688118 268.327919h-54.116105V78.926416H241.429203v189.400287H187.313098c-59.689242 0-108.228562 48.538104-108.228562 108.227346v351.744954H241.427987V944.757344h541.144026V728.30022H944.915464v-351.744955c0-59.690458-48.53932-108.227346-108.227346-108.227346zM295.54166 133.041305h432.91668v135.285398H295.54166V133.041305zM728.45834 890.643671H295.54166V647.128494h432.91668V890.643671z m162.342235-216.457124h-108.228562v-81.171726H241.429203v81.171726h-108.229778v-297.631282c0-29.831242 24.282431-54.113673 54.114889-54.113673H836.688118c29.830025 0 54.113673 24.282431 54.113673 54.113673l-0.001216 297.631282z" fill="#d4237a" p-id="2611"></path><path d="M378.062274 406.193113c-3.799755-4.817808-9.200176-8.834066-16.209775-12.04756-7.010816-3.211061-16.066251-4.82024-27.163872-4.82024H265.684876v156.410287h27.382807v-60.023728h41.620944c11.097621 0 20.153056-1.567825 27.163872-4.707123 7.0096-3.139298 12.41002-7.120284 16.209775-11.939308 3.796106-4.819024 6.386849-10.038214 7.777092-15.662436 1.385378-5.620573 2.081108-10.843412 2.081108-15.662436 0-4.817808-0.69573-10.07592-2.081108-15.771903-1.390243-5.698417-3.980986-10.956529-7.777092-15.775553z m-20.043587 43.703268c-1.680942 3.285256-3.871518 5.912487-6.571728 7.884127a27.066567 27.066567 0 0 1-8.871772 4.2729c-3.21471 0.87696-6.352792 1.312399-9.420328 1.3124h-40.087176v-51.698079h40.526264c3.648933 0 7.081362 0.367326 10.294856 1.094679 3.212277 0.733435 6.058445 2.081108 8.543367 4.052748 2.481274 1.97164 4.452914 4.637794 5.91492 7.996028 1.458357 3.361883 2.190576 7.595862 2.190576 12.704368 0 4.96863-0.841687 9.095573-2.518979 12.380829zM652.058202 545.734383h27.381592v-69.441623h70.756455v-22.344848h-70.756455v-40.962919h80.614655v-23.65968h-107.996247V545.734383zM565.71229 412.218717c-5.551243-7.081362-12.705584-12.667878-21.467888-16.758331-8.76352-4.086805-19.132571-6.133856-31.105935-6.133856H448.295716v156.40907h64.842751c11.972148 0 22.342415-2.044619 31.105935-6.133856 8.762304-4.086805 15.915428-9.672104 21.467888-16.758332 5.547594-7.081362 9.673321-15.368088 12.37718-24.862612 2.701427-9.49209 4.052748-19.639772 4.052748-30.447911s-1.351321-20.955821-4.052748-30.450344c-2.702643-9.493307-6.82837-17.778817-12.37718-24.863828z m-13.031555 77.326967c-1.39146 6.790664-4.019908 12.7068-7.88656 17.743544-3.871518 5.040392-9.200176 8.982456-15.992056 11.831056-6.790664 2.847384-15.518911 4.271684-26.176227 4.271684h-26.944936v-111.721807h26.944936c10.658533 0 19.385563 1.423084 26.176227 4.2729 6.790664 2.847384 12.121755 6.790664 15.992056 11.827408 3.867869 5.041609 6.496317 10.954096 7.88656 17.74476 1.386594 6.790664 2.081108 14.128668 2.081108 22.016444 0 7.884127-0.696946 15.223347-2.081108 22.014011z" fill="#d4237a" p-id="2612"></path></svg>