<?xml version="1.0" standalone="no"?><!DOCTYPE svg PUBLIC "-//W3C//DTD SVG 1.1//EN" "http://www.w3.org/Graphics/SVG/1.1/DTD/svg11.dtd"><svg t="1488967814241" class="icon" style="" viewBox="0 0 1024 1024" version="1.1" xmlns="http://www.w3.org/2000/svg" p-id="5187" xmlns:xlink="http://www.w3.org/1999/xlink" width="32" height="32"><defs><style type="text/css"></style></defs><path d="M246.432808 800.257524c39.171866-28.44758 64.007055-67.619447 88.955132-106.678426-32.059971 31.947084-67.619447 67.506559-88.955132 106.678426zM498.961526 476.609856c-21.335685 53.395656-46.283761 106.678426-74.731342 156.461691 53.395656-17.836181 106.678426-35.559475 163.573586-46.283762-35.446588-35.559475-67.506559-71.118951-88.842244-110.177929z m-3.612391-266.752508c-7.111895 46.283761-3.612391 92.454636 7.111895 138.738397 17.836181-46.283761 21.448572-99.679418-7.111895-138.738397zM907.951935 49.783265H118.418697C82.859222 49.783265 50.79925 81.730349 50.79925 117.402712v786.033734c0 39.171866 32.059971 71.118951 67.619447 71.11895h786.033734c39.171866 0 67.619447-32.059971 67.619446-67.619446V117.402712c3.499504-35.672362-28.560467-67.619447-64.119942-67.619447z m-99.566531 618.847757c-64.007055 3.612391-120.902216-28.44758-174.297872-49.783265-78.230846 7.111895-152.962187 28.44758-227.580642 49.783265-32.059971 53.395656-64.007055 117.402712-117.402712 152.962187-28.44758 21.335685-88.955132 3.612391-74.731341-39.171866 24.948076-56.89516 81.843237-88.955132 135.126005-117.402712 14.22379-7.111895 24.948076-21.335685 32.059972-35.559475 35.559475-67.619447 71.118951-135.126006 99.566531-206.244957-14.22379-64.007055-35.559475-131.626502-24.948077-202.745452 3.612391-28.44758 42.67137-35.559475 64.007056-24.948077 14.22379 10.724286 21.335685 28.44758 21.335685 42.671371 0 49.783265-7.111895 103.178922-14.22379 152.962187-3.612391 24.948076 10.724286 46.283761 21.335685 64.007055 24.948076 46.283761 60.507552 88.955132 106.678426 117.402712 56.89516-7.111895 113.790321-14.22379 170.685481 3.612391 35.78525 14.22379 25.060964 92.454636-17.610407 92.454636zM712.318377 604.623966c35.559475 17.836181 78.230846 35.559475 117.402712 24.948077-28.44758-35.559475-78.230846-24.948076-117.402712-24.948077z" fill="#e0620d" p-id="5188"></path></svg>