<?xml version="1.0" standalone="no"?><!DOCTYPE svg PUBLIC "-//W3C//DTD SVG 1.1//EN" "http://www.w3.org/Graphics/SVG/1.1/DTD/svg11.dtd"><svg t="1488954718515" class="icon" style="" viewBox="0 0 1024 1024" version="1.1" xmlns="http://www.w3.org/2000/svg" p-id="2699" xmlns:xlink="http://www.w3.org/1999/xlink" width="32" height="32"><defs><style type="text/css"></style></defs><path d="M419.432 510.422l0.074 0.074-1.578 1.578 404.766 403.313c10.993 10.811 26.083 17.487 42.732 17.487 0.107 0 0.214 0 0.321-0.001 33.899 0 61.462-27.453 61.462-61.243 0-8.053-1.504-15.87-4.486-23.178-4.697-11.207-12.257-20.43-21.778-27.022l-309.168-309.418 317.86-316.717c10.847-10.954 17.548-26.028 17.548-42.668 0-0.069 0-0.139 0-0.206 0-33.769-27.578-61.257-61.478-61.257-0.098 0-0.215-0.001-0.331-0.001-16.457 0-31.387 6.535-42.337 17.153l-403.607 402.103z" p-id="2700" fill="#1296db"></path><path d="M57.516 514.163l404.766 403.286c10.992 10.802 26.077 17.474 42.721 17.474 0.115 0 0.233 0 0.347-0.001 33.897 0 61.461-27.453 61.461-61.243 0-8.053-1.504-15.87-4.486-23.178-4.697-11.207-12.257-20.43-21.778-27.022l-309.181-309.404 317.872-316.704c10.847-10.957 17.548-26.034 17.548-42.677 0-0.066 0-0.13 0-0.195 0-33.769-27.579-61.258-61.467-61.258-16.205 0-31.441 6.176-42.665 17.125l-405.139 403.795z" p-id="2701" fill="#1296db"></path></svg>