<?xml version="1.0" standalone="no"?><!DOCTYPE svg PUBLIC "-//W3C//DTD SVG 1.1//EN" "http://www.w3.org/Graphics/SVG/1.1/DTD/svg11.dtd"><svg preserveAspectRatio="none" t="1490494585958" class="icon" style="" viewBox="0 0 1024 1024" version="1.1" xmlns="http://www.w3.org/2000/svg" p-id="11646" xmlns:xlink="http://www.w3.org/1999/xlink" width="32" height="32"><defs><style type="text/css"></style></defs><path d="M320 64l-256 0 0 256 256 0 0-256zM384 0l0 0 0 384-384 0 0-384 384 0zM128 128l128 0 0 128-128 0zM960 64l-256 0 0 256 256 0 0-256zM1024 0l0 0 0 384-384 0 0-384 384 0zM768 128l128 0 0 128-128 0zM320 704l-256 0 0 256 256 0 0-256zM384 640l0 0 0 384-384 0 0-384 384 0zM128 768l128 0 0 128-128 0zM448 0l64 0 0 64-64 0zM512 64l64 0 0 64-64 0zM448 128l64 0 0 64-64 0zM512 192l64 0 0 64-64 0zM448 256l64 0 0 64-64 0zM512 320l64 0 0 64-64 0zM448 384l64 0 0 64-64 0zM448 512l64 0 0 64-64 0zM512 576l64 0 0 64-64 0zM448 640l64 0 0 64-64 0zM512 704l64 0 0 64-64 0zM448 768l64 0 0 64-64 0zM512 832l64 0 0 64-64 0zM448 896l64 0 0 64-64 0zM512 960l64 0 0 64-64 0zM960 512l64 0 0 64-64 0zM64 512l64 0 0 64-64 0zM128 448l64 0 0 64-64 0zM0 448l64 0 0 64-64 0zM256 448l64 0 0 64-64 0zM320 512l64 0 0 64-64 0zM384 448l64 0 0 64-64 0zM576 512l64 0 0 64-64 0zM640 448l64 0 0 64-64 0zM704 512l64 0 0 64-64 0zM768 448l64 0 0 64-64 0zM832 512l64 0 0 64-64 0zM896 448l64 0 0 64-64 0zM960 640l64 0 0 64-64 0zM576 640l64 0 0 64-64 0zM640 576l64 0 0 64-64 0zM704 640l64 0 0 64-64 0zM832 640l64 0 0 64-64 0zM896 576l64 0 0 64-64 0zM960 768l64 0 0 64-64 0zM576 768l64 0 0 64-64 0zM640 704l64 0 0 64-64 0zM768 704l64 0 0 64-64 0zM832 768l64 0 0 64-64 0zM896 704l64 0 0 64-64 0zM960 896l64 0 0 64-64 0zM640 832l64 0 0 64-64 0zM704 896l64 0 0 64-64 0zM768 832l64 0 0 64-64 0zM832 896l64 0 0 64-64 0zM640 960l64 0 0 64-64 0zM768 960l64 0 0 64-64 0zM896 960l64 0 0 64-64 0z" p-id="11647" fill="#2c2c2c"></path></svg>