<?xml version="1.0" standalone="no"?><!DOCTYPE svg PUBLIC "-//W3C//DTD SVG 1.1//EN" "http://www.w3.org/Graphics/SVG/1.1/DTD/svg11.dtd"><svg t="1488967739535" class="icon" style="" viewBox="0 0 1024 1024" version="1.1" xmlns="http://www.w3.org/2000/svg" p-id="4267" xmlns:xlink="http://www.w3.org/1999/xlink" width="32" height="32"><defs><style type="text/css"></style></defs><path d="M625.472 132.536 625.472 199.496 935.44 199.496 935.44 242.744 625.472 242.744 625.472 312.504 935.44 312.504 935.44 355.752 625.472 355.752 625.472 424.112 935.44 424.112 935.44 467.36 625.472 467.36 625.472 535.72 935.44 535.72 935.44 578.968 625.472 578.968 625.472 647.328 935.44 647.328 935.44 690.576 625.472 690.576 625.472 758.928 935.44 758.928 935.44 802.176 625.472 802.176 625.472 891.464 1024 891.464 1024 132.536Z" p-id="4268" fill="#004198"></path><path d="M0 108.816l0 806.368L577.04 1024 577.04 0 0 108.816zM417.904 686.384 333.496 686.384l-53.968-238.56-67.808 238.56L153.6 686.384 70.576 334.824 153.6 334.824l33.208 219.032 55.352-241.352 87.176 0 47.048 263.672 49.816-263.672 83.024 0L417.904 686.384z" p-id="4269" fill="#004198"></path></svg>