<?xml version="1.0" standalone="no"?><!DOCTYPE svg PUBLIC "-//W3C//DTD SVG 1.1//EN" "http://www.w3.org/Graphics/SVG/1.1/DTD/svg11.dtd"><svg preserveAspectRatio="none" t="1490494615785" class="icon" style="" viewBox="0 0 1024 1024" version="1.1" xmlns="http://www.w3.org/2000/svg" p-id="11866" xmlns:xlink="http://www.w3.org/1999/xlink" width="32" height="32"><defs><style type="text/css"></style></defs><path d="M0 128l128 0 0 640-128 0zM192 128l64 0 0 640-64 0zM320 128l64 0 0 640-64 0zM512 128l64 0 0 640-64 0zM768 128l64 0 0 640-64 0zM960 128l64 0 0 640-64 0zM640 128l32.01024 0 0 640-32.01024 0zM448 128l32.01024 0 0 640-32.01024 0zM864.01024 128l32.01024 0 0 640-32.01024 0zM0 832l64 0 0 64-64 0zM192 832l64 0 0 64-64 0zM320 832l64 0 0 64-64 0zM640 832l64 0 0 64-64 0zM960 832l64 0 0 64-64 0zM768 832l128 0 0 64-128 0zM448 832l128 0 0 64-128 0z" p-id="11867" fill="#2c2c2c"></path></svg>