<?xml version="1.0" standalone="no"?><!DOCTYPE svg PUBLIC "-//W3C//DTD SVG 1.1//EN" "http://www.w3.org/Graphics/SVG/1.1/DTD/svg11.dtd"><svg t="1495532611304" class="icon" style="" viewBox="0 0 1024 1024" version="1.1" xmlns="http://www.w3.org/2000/svg" p-id="2607" xmlns:xlink="http://www.w3.org/1999/xlink" width="200" height="200"><defs><style type="text/css"></style></defs><path d="M-48.895 881.707l626.537 111.882v-984.557l-626.537 111.882v760.794zM107.74 299.923h89.505l44.753 84.532 44.753-84.532h89.505l-89.505 169.066 111.882 211.331h-89.505l-67.129-126.799-67.129 126.799h-89.505l111.882-211.331-89.505-169.066zM689.524 478.932h-111.878v44.753h111.878v-44.753zM689.524 747.449h-111.878v44.753h111.878v-44.753zM689.524 613.191h-111.878v44.753h111.878v-44.753zM689.524 344.676h-111.878v44.753h111.878v-44.753zM689.524 210.418h-111.878v44.753h111.878v-44.753zM756.652 657.944h156.634v-44.753h-156.634v44.753zM756.652 523.686h156.634v-44.753h-156.634v44.753zM756.652 792.201h156.634v-44.753h-156.634v44.753zM913.287 210.418h-156.634v44.753h156.634v-44.753zM756.652 389.428h156.634v-44.753h-156.634v44.753zM577.645 76.159v44.753h402.77v760.794h-402.77v44.753h448.614v-850.3h-448.614z" p-id="2608" fill="#d4237a"></path></svg>