<?xml version="1.0" standalone="no"?><!DOCTYPE svg PUBLIC "-//W3C//DTD SVG 1.1//EN" "http://www.w3.org/Graphics/SVG/1.1/DTD/svg11.dtd"><svg t="1493273763287" class="icon" style="" viewBox="0 0 1024 1024" version="1.1" xmlns="http://www.w3.org/2000/svg" p-id="1081" xmlns:xlink="http://www.w3.org/1999/xlink" width="64" height="64"><defs><style type="text/css"></style></defs><path d="M0 914.944L577.024 1024V0L0 109.056v805.888zM145.408 291.84h92.16l65.536 119.808L370.688 291.84h89.088l-112.64 177.664L466.944 660.48H373.248l-70.144-125.44L229.376 660.48H139.776l118.272-187.904-112.64-180.736zM625.664 133.12v67.072h309.76v43.008h-309.76v69.632h309.76v43.008h-309.76v68.608h309.76v43.008h-309.76v68.608h309.76v43.008h-309.76v68.608h309.76v43.008h-309.76v68.096h309.76v43.008h-309.76V890.88H1024V133.12z" fill="#81af08" p-id="1082"></path></svg>