<?xml version="1.0" standalone="no"?><!DOCTYPE svg PUBLIC "-//W3C//DTD SVG 1.1//EN" "http://www.w3.org/Graphics/SVG/1.1/DTD/svg11.dtd"><svg t="1487225704121" class="icon" style="" viewBox="0 0 1024 1024" version="1.1" xmlns="http://www.w3.org/2000/svg" p-id="2135" xmlns:xlink="http://www.w3.org/1999/xlink" width="16" height="16"><defs><style type="text/css"></style></defs><path d="M512.023 19.316c-271.466 0-491.52 220.053-491.52 491.52s220.053 491.52 491.52 491.52 491.52-220.053 491.52-491.52-220.054-491.52-491.52-491.52zM512.023 947.742c-241.298 0-436.907-195.628-436.907-436.907 0-241.313 195.609-436.907 436.907-436.907s436.907 195.591 436.907 436.907c0 241.279-195.609 436.907-436.907 436.907z" p-id="2136" fill="#f1de9d"></path><path d="M262.471 441.809c0 38.122 30.903 69.024 69.024 69.024s69.024-30.903 69.024-69.024c0-38.122-30.903-69.024-69.024-69.024-38.122 0-69.024 30.903-69.024 69.024z" p-id="2137" fill="#f1de9d"></path><path d="M617.986 441.81c0 38.122 30.903 69.025 69.025 69.025s69.025-30.903 69.025-69.025c0-38.122-30.903-69.025-69.025-69.025-38.122 0-69.025 30.903-69.025 69.025z" p-id="2138" fill="#f1de9d"></path><path d="M512.022 738.768c-78.231 0-144.74-49.441-170.492-118.706h-38.56c27.159 89.746 110.441 155.116 209.052 155.116s181.891-65.37 209.052-155.116h-38.56c-25.751 69.268-92.261 118.706-170.492 118.706z" p-id="2139" fill="#f1de9d"></path></svg>