<?xml version="1.0" standalone="no"?><!DOCTYPE svg PUBLIC "-//W3C//DTD SVG 1.1//EN" "http://www.w3.org/Graphics/SVG/1.1/DTD/svg11.dtd"><svg t="1489977114111" class="icon" style="" viewBox="0 0 1180 1024" version="1.1" xmlns="http://www.w3.org/2000/svg" p-id="7856" xmlns:xlink="http://www.w3.org/1999/xlink" width="36.875" height="32"><defs><style type="text/css"></style></defs><path d="M289.391304 667.826087l445.217391 0 0 44.521739-445.217391 0 0-44.521739Z" p-id="7857" fill="#82529d"></path><path d="M289.391304 356.173913l333.913043 0 0 44.521739-333.913043 0 0-44.521739Z" p-id="7858" fill="#82529d"></path><path d="M289.391304 512l445.217391 0 0 44.521739-445.217391 0 0-44.521739Z" p-id="7859" fill="#82529d"></path><path d="M1068.521739 0 111.304348 0C48.973913 0 0 48.973913 0 111.304348l0 400.695652c0 62.330435 48.973913 111.304348 111.304348 111.304348 24.486957 0 48.973913-8.904348 66.782609-22.26087l0 422.956522 801.391304 0 22.26087 0L1001.73913 601.043478c17.808696 13.356522 42.295652 22.26087 66.782609 22.26087 62.330435 0 111.304348-48.973913 111.304348-111.304348L1179.826087 111.304348C1179.826087 48.973913 1128.626087 0 1068.521739 0zM957.217391 979.478261 222.608696 979.478261 222.608696 512l0-178.086957c0-37.843478 28.93913-66.782609 66.782609-66.782609l601.043478 0c37.843478 0 66.782609 28.93913 66.782609 66.782609l0 178.086957L957.217391 979.478261zM1135.304348 512c0 37.843478-28.93913 66.782609-66.782609 66.782609s-66.782609-28.93913-66.782609-66.782609l0-178.086957 0-66.782609 44.521739 0 0-44.521739-44.521739 0-111.304348 0L289.391304 222.608696 178.086957 222.608696 133.565217 222.608696l0 44.521739 44.521739 0 0 66.782609 0 178.086957c0 37.843478-28.93913 66.782609-66.782609 66.782609s-66.782609-28.93913-66.782609-66.782609L44.521739 111.304348c0-37.843478 28.93913-66.782609 66.782609-66.782609l957.217391 0c37.843478 0 66.782609 28.93913 66.782609 66.782609L1135.304348 512z" p-id="7860" fill="#82529d"></path></svg>